<?xml version="1.0" encoding="utf-8"?>
<!-- Generator: Adobe Illustrator 19.1.0, SVG Export Plug-In . SVG Version: 6.00 Build 0)  -->
<svg version="1.1" id="Layer_1" xmlns="http://www.w3.org/2000/svg" xmlns:xlink="http://www.w3.org/1999/xlink" x="0px" y="0px"
	 viewBox="0 0 100 100" enable-background="new 0 0 100 100" xml:space="preserve">
<path d="M50,0C22.4,0,0,22.4,0,50c0,27.6,22.4,50,50,50s50-22.4,50-50C100,22.4,77.6,0,50,0z M52.8,81c-1.1,1.2-2.6,1.8-4.2,1.8
	c-1.7,0-3.1-0.6-4.3-1.8s-1.8-2.6-1.8-4.3c0-1.7,0.6-3.1,1.8-4.2c1.2-1.1,2.6-1.7,4.3-1.7c1.7,0,3.1,0.6,4.2,1.7
	c1.1,1.1,1.7,2.6,1.7,4.2C54.5,78.4,53.9,79.8,52.8,81z M60.8,48.9c-3.3,2.7-5.4,4.8-6.4,6.3c-1,1.5-1.5,3.2-1.5,4.9l0.1,1L44,61.3
	c-0.6-1.5-0.9-3.3-0.9-5.5c0-2.2,0.3-3.9,1-5.3c0.7-1.4,1.5-2.6,2.4-3.7c1-1.1,2-2.1,3.1-3.1c1.1-0.9,2.2-1.8,3.1-2.7
	c2.3-2.2,3.4-4.4,3.4-6.5c0-2.1-0.6-3.7-1.8-4.6c-1.2-0.9-2.4-1.4-3.7-1.4c-2.6,0-4.6,0.3-5.9,0.8L42.7,38h-7.3l1.4-15.8
	c5.6-1.9,10.8-2.9,15.7-2.9s8.8,1.2,11.7,3.7c2.9,2.5,4.4,5.8,4.4,9.8C68.6,39.2,66,44.6,60.8,48.9z"/>
</svg>
