<?xml version="1.0" encoding="utf-8"?>
<!-- Generator: Adobe Illustrator 19.1.0, SVG Export Plug-In . SVG Version: 6.00 Build 0)  -->
<svg version="1.1" id="Layer_1" xmlns="http://www.w3.org/2000/svg" xmlns:xlink="http://www.w3.org/1999/xlink" x="0px" y="0px"
	 viewBox="-669 401 100 100" enable-background="new -669 401 100 100" xml:space="preserve">
<g>
	<path fill="#ffffff" d="M-638.5,451c-0.9-2.6,0.5-5.3,3.1-6.1l28.9-9.6c2.6-0.9,5.3,0.5,6.1,3.1c0.9,2.6-0.5,5.3-3.1,6.1l-28.9,9.6
		c-0.5,0.2-1,0.3-1.5,0.3C-635.9,454.3-637.8,453-638.5,451z M-633.9,439.8c0.5,0,1-0.1,1.5-0.3l19.3-6.5c2.6-0.9,3.9-3.6,3.1-6.1
		s-3.6-3.9-6.1-3.1l-19.3,6.6c-2.6,0.9-3.9,3.6-3.1,6.1C-637.8,438.5-635.9,439.8-633.9,439.8z M-629,474.4h9.5
		c0.1-0.6,0.1-1.2,0-1.7c-0.5-2.7-1.7-5.2-3.4-7.3l19.5-6.5c2.6-0.9,3.9-3.6,3.1-6.1c-0.9-2.6-3.6-3.9-6.1-3.1l-28.9,9.6
		c-2,0.7-3.4,2.7-3.3,4.9c0.2,2.2,1.7,4,3.8,4.4C-631.9,469.3-629.6,471.5-629,474.4z M-604.9,463.2c-7.7,0-13.9,6-14.4,13.5h-9.7
		c-2.6,0-4.9,2.1-4.9,4.9v4.9c0,2.6,2.1,4.9,4.9,4.9v4.9c0,2.6,2.1,4.9,4.9,4.9h9.6c2.6,0,4.9-2.1,4.9-4.9v-4.9
		c2.6,0,4.9-2.1,4.9-4.9v-4.9c0-2.6-2-4.7-4.7-4.8c0.4-2.2,2.3-3.9,4.7-3.9c2.6,0,4.9-2.1,4.9-4.9S-602.3,463.2-604.9,463.2z"/>
</g>
</svg>
