<?xml version="1.0" encoding="utf-8"?>
<!-- Generator: Adobe Illustrator 19.1.0, SVG Export Plug-In . SVG Version: 6.00 Build 0)  -->
<svg version="1.1" id="Layer_1" xmlns="http://www.w3.org/2000/svg" xmlns:xlink="http://www.w3.org/1999/xlink" x="0px" y="0px"
	 viewBox="-669 401 100 100" enable-background="new -669 401 100 100" xml:space="preserve">
<g>
	<g>
		<path fill="#ffffff" d="M-660.3,456.6c0.3,0.1,0.5,0.2,0.8,0.2h10.6c1.4,0,2.6-1.1,2.6-2.6c0-1.4-1.1-2.6-2.6-2.6h-10.5c-1.4,0-2.6,1.1-2.6,2.6
			C-662,455.3-661.3,456.2-660.3,456.6z"/>
		<path fill="#ffffff" d="M-654.1,420.2c0.1,0.3,0.3,0.4,0.5,0.7l7.5,7.6c1,1,2.6,1,3.6,0s1-2.6,0-3.6l-7.5-7.6c-1-1-2.6-1-3.6,0
			C-654.4,418.1-654.5,419.3-654.1,420.2z"/>
		<path fill="#ffffff" d="M-621.8,402.7c-0.1,0.3-0.2,0.5-0.2,0.9v10.6c0,1.4,1.1,2.6,2.6,2.6c1.4,0,2.6-1.1,2.6-2.6v-10.6c0-1.4-1.1-2.6-2.6-2.6
			C-620.5,401-621.4,401.7-621.8,402.7z"/>
		<path fill="#ffffff" d="M-576.8,454.2c0-1.4-1.1-2.6-2.6-2.6H-590c-1.4,0-2.6,1.1-2.6,2.6c0,1.4,1.1,2.6,2.6,2.6h10.6c0.3,0,0.5-0.1,0.8-0.2
			C-577.5,456.2-576.8,455.3-576.8,454.2z"/>
		<path fill="#ffffff" d="M-585.2,417.3c-1-1-2.6-1-3.6,0l-7.5,7.6c-1,1-0.9,2.6,0,3.6s2.6,1,3.6,0l7.5-7.6c0.2-0.2,0.3-0.4,0.5-0.7
			C-584.3,419.3-584.4,418.1-585.2,417.3z"/>
	</g>
</g>
</svg>
